<svg width="20" height="16" viewBox="0 0 20 16" fill="none" xmlns="http://www.w3.org/2000/svg">
<path d="M4.80892 15.1342H3.09498C2.94678 15.1342 2.80465 15.0754 2.69986 14.9706C2.59507 14.8658 2.53619 14.7237 2.53619 14.5755V10.9365C2.53619 10.7883 2.59507 10.6461 2.69986 10.5413C2.80465 10.4366 2.94678 10.3777 3.09498 10.3777H4.80892C4.95712 10.3777 5.09925 10.4366 5.20404 10.5413C5.30883 10.6461 5.36771 10.7883 5.36771 10.9365V14.5757C5.36765 14.7238 5.30875 14.8659 5.20396 14.9707C5.09918 15.0754 4.95708 15.1342 4.80892 15.1342Z" fill="#FBC02D" stroke="#FFFDE7" stroke-width="0.5" stroke-miterlimit="10"/>
<path d="M8.80106 15.1347H7.08712C6.93892 15.1347 6.79679 15.0758 6.692 14.971C6.58721 14.8662 6.52834 14.7241 6.52834 14.5759V6.18036C6.52834 6.03217 6.58721 5.89004 6.692 5.78525C6.79679 5.68045 6.93892 5.62158 7.08712 5.62158H8.80106C8.94926 5.62158 9.09139 5.68045 9.19618 5.78525C9.30098 5.89004 9.35985 6.03217 9.35985 6.18036V14.5761C9.35979 14.7243 9.30089 14.8664 9.1961 14.9711C9.09132 15.0759 8.94922 15.1347 8.80106 15.1347Z" fill="#FBC02D" stroke="#FFFDE7" stroke-width="0.5" stroke-miterlimit="10"/>
<path d="M12.7931 15.1343H11.0792C10.931 15.1343 10.7889 15.0754 10.6841 14.9706C10.5793 14.8658 10.5204 14.7237 10.5204 14.5755V7.5788C10.5204 7.4306 10.5793 7.28848 10.6841 7.18368C10.7889 7.07889 10.931 7.02002 11.0792 7.02002H12.7931C12.8665 7.02002 12.9392 7.03447 13.007 7.06255C13.0748 7.09064 13.1364 7.1318 13.1882 7.18368C13.2401 7.23557 13.2813 7.29717 13.3094 7.36497C13.3375 7.43276 13.3519 7.50542 13.3519 7.5788V14.5755C13.3519 14.7237 13.293 14.8657 13.1882 14.9705C13.0834 15.0753 12.9413 15.1342 12.7931 15.1343Z" fill="#FBC02D" stroke="#FFFDE7" stroke-width="0.5" stroke-miterlimit="10"/>
<path d="M16.7051 15.1347H15.1515C14.982 15.1347 14.8195 15.0673 14.6997 14.9475C14.5799 14.8277 14.5125 14.6652 14.5125 14.4957V1.50395C14.5125 1.42004 14.5291 1.33696 14.5612 1.25943C14.5933 1.18191 14.6404 1.11147 14.6997 1.05214C14.759 0.992805 14.8295 0.945739 14.907 0.913628C14.9845 0.881517 15.0676 0.86499 15.1515 0.86499H16.7051C16.789 0.86499 16.8721 0.881517 16.9496 0.913628C17.0271 0.945739 17.0976 0.992805 17.1569 1.05214C17.2162 1.11147 17.2633 1.18191 17.2954 1.25943C17.3275 1.33696 17.3441 1.42004 17.3441 1.50395V14.4959C17.344 14.6654 17.2766 14.8278 17.1568 14.9476C17.037 15.0674 16.8745 15.1347 16.7051 15.1347Z" fill="#FBC02D" stroke="#FFFDE7" stroke-width="0.5" stroke-miterlimit="10"/>
<path d="M0.880005 14.4516C1.89496 14.5069 2.82521 13.8994 3.48411 13.178C4.143 12.4563 4.6207 11.6024 5.29364 10.8923C5.96658 10.1822 6.92786 9.60444 7.93806 9.71158C9.57998 9.88576 10.476 11.6853 12.0366 12.192C13.2047 12.5712 14.4908 12.1472 15.5889 11.6169C16.687 11.0867 17.7692 10.4316 19 10.3191" stroke="#FFFDE7" stroke-width="0.5" stroke-miterlimit="10" stroke-linecap="round"/>
</svg>
