<svg width="20" height="20" viewBox="0 0 20 20" fill="none" xmlns="http://www.w3.org/2000/svg">
<g clip-path="url(#clip0)">
<path d="M3.18006 13.4678C2.89807 13.1953 2.89807 12.7418 3.18006 12.4598C3.45253 12.1874 3.90601 12.1874 4.17784 12.4598L9.28867 17.5707L9.28867 0.705621C9.2893 0.31248 9.60178 2.89947e-07 9.99493 3.07132e-07C10.3881 3.24317e-07 10.7107 0.31248 10.7107 0.705621L10.7107 17.5707L15.812 12.4598C16.094 12.1874 16.5481 12.1874 16.8199 12.4598C17.1019 12.7418 17.1019 13.1959 16.8199 13.4678L10.4992 19.7885C10.2267 20.0705 9.77327 20.0705 9.50143 19.7885L3.18006 13.4678Z" fill="#EF5350"/>
</g>
<defs>
<clipPath id="clip0">
<rect width="20" height="20" fill="white" transform="matrix(-4.37114e-08 1 1 4.37114e-08 0 0)"/>
</clipPath>
</defs>
</svg>
