<svg width="20" height="20" viewBox="0 0 20 20" fill="none" xmlns="http://www.w3.org/2000/svg">
<g clip-path="url(#clip0)">
<path d="M3.18006 6.53223C2.89807 6.8047 2.89807 7.25818 3.18006 7.54017C3.45253 7.81264 3.90601 7.81264 4.17784 7.54017L9.28867 2.42934L9.28867 19.2944C9.2893 19.6875 9.60178 20 9.99493 20C10.3881 20 10.7107 19.6875 10.7107 19.2944L10.7107 2.42934L15.812 7.54017C16.094 7.81264 16.5481 7.81264 16.8199 7.54017C17.1019 7.25818 17.1019 6.80407 16.8199 6.53223L10.4992 0.211496C10.2267 -0.0704978 9.77327 -0.0704978 9.50143 0.211496L3.18006 6.53223Z" fill="#66BB6A"/>
</g>
<defs>
<clipPath id="clip0">
<rect width="20" height="20" fill="white" transform="translate(0 20) rotate(-90)"/>
</clipPath>
</defs>
</svg>
